<?xml version="1.0" encoding="UTF-8" standalone="no"?>
<!-- Created with Inkscape (http://www.inkscape.org/) -->

<svg
   width="66.824997mm"
   height="17.29105mm"
   viewBox="0 0 66.824995 17.291049"
   version="1.1"
   id="svg279"
   inkscape:version="1.1.1 (3bf5ae0d25, 2021-09-20)"
   xmlns:inkscape="http://www.inkscape.org/namespaces/inkscape"
   xmlns:sodipodi="http://sodipodi.sourceforge.net/DTD/sodipodi-0.dtd"
   xmlns="http://www.w3.org/2000/svg"
   xmlns:svg="http://www.w3.org/2000/svg">
  <sodipodi:namedview
     id="namedview281"
     pagecolor="#193958"
     bordercolor="#666666"
     borderopacity="1.0"
     inkscape:pageshadow="2"
     inkscape:pageopacity="0"
     inkscape:pagecheckerboard="0"
     inkscape:document-units="mm"
     showgrid="false"
     inkscape:zoom="1.557211"
     inkscape:cx="50.731725"
     inkscape:cy="-3.2108687"
     inkscape:window-width="1920"
     inkscape:window-height="1163"
     inkscape:window-x="1280"
     inkscape:window-y="0"
     inkscape:window-maximized="1"
     inkscape:current-layer="layer1"
     scale-x="1" />
  <defs
     id="defs276" />
  <g
     inkscape:label="Layer 1"
     inkscape:groupmode="layer"
     id="layer1"
     transform="translate(-52.901031,-136.11648)">
    <path
       d="m 69.922559,142.6203 h -3.042885 c -0.851076,-2.11244 -2.919589,-3.60821 -5.333471,-3.60821 -2.944636,0 -5.378097,2.22585 -5.709708,5.08282 h 1.662112 c 0.319441,-1.94627 2.012774,-3.43571 4.047596,-3.43571 2.094795,0 3.826758,1.57851 4.072291,3.60804 h 0.0011 2.906889 c 0.01182,0.16404 0.01852,0.32826 0.01852,0.49495 0,3.85886 -3.139899,6.99875 -6.998759,6.99875 -2.664531,0 -4.985809,-1.49771 -6.167967,-3.69499 h -1.819981 c 1.300515,3.13214 4.390496,5.34158 7.987948,5.34158 4.767262,0 8.645702,-3.87826 8.645702,-8.64534 0,-0.73872 -0.09331,-1.45662 -0.269346,-2.14189 z m -8.704792,1.4515 c 0,0.60748 0.491949,1.09996 1.099432,1.09996 0.60766,0 1.100314,-0.49248 1.100314,-1.09996 0,-0.60766 -0.492654,-1.09961 -1.100314,-1.09961 -0.607483,0 -1.099432,0.49195 -1.099432,1.09961 z m 0.321204,3.38314 c -1.487311,0 -2.693987,-1.20615 -2.693987,-2.69469 0,-1.48785 1.206676,-2.69452 2.693987,-2.69452 1.488546,0 2.694694,1.20667 2.694694,2.69452 0,1.48854 -1.206148,2.69469 -2.694694,2.69469 z m -5.326062,-0.55122 h -3.043415 c -0.175506,-0.68474 -0.268463,-1.40282 -0.268463,-2.14153 0,-4.76709 3.878085,-8.64571 8.645172,-8.64571 3.597275,0 6.687433,2.20946 7.987948,5.34194 H 67.71417 c -1.181982,-2.19763 -3.503083,-3.69482 -6.167967,-3.69482 -3.858684,0 -6.998583,3.13937 -6.998583,6.99859 0,0.16633 0.0067,0.33108 0.01834,0.49494 h 2.906537 0.0014 c 0.245357,2.02953 1.977672,3.60821 4.072291,3.60821 2.034999,0 3.727802,-1.48995 4.047772,-3.4357 h 1.662289 c -0.331964,2.85697 -2.765601,5.08229 -5.710061,5.08229 -2.41353,0 -4.482219,-1.49524 -5.333295,-3.60821"
       style="fill:#00a888;fill-opacity:1;fill-rule:nonzero;stroke:none;stroke-width:0.0176389"
       id="path18" />
    <path
       d="m 119.72596,146.57652 c 0,1.51254 -1.09713,2.37984 -3.00919,2.37984 -1.91206,0 -3.04624,-0.87983 -3.11326,-2.41352 l -0.007,-0.1293 h 2.00907 l 0.0141,0.10813 c 0.0653,0.51788 0.27516,0.86289 1.08479,0.86289 0.9525,0 0.9525,-0.47025 0.9525,-0.62441 0,-0.32615 -0.20638,-0.53287 -1.28588,-0.69162 -1.94733,-0.29387 -2.63701,-0.88548 -2.63701,-2.26026 0,-1.56244 1.42522,-2.26201 2.8381,-2.26201 1.80093,0 2.79576,0.75213 2.95627,2.23538 l 0.0159,0.13688 h -1.98437 l -0.0194,-0.10089 c -0.097,-0.51541 -0.37218,-0.72602 -0.95427,-0.72602 -0.52387,0 -0.84843,0.22454 -0.84843,0.58561 0,0.30392 0.18345,0.47555 1.21885,0.62548 1.75507,0.25435 2.7693,0.70766 2.7693,2.27382 z m -9.11048,-4.87274 h 2.13607 v 7.10812 h -2.13607 v -0.77241 c -0.45685,0.59461 -1.17122,0.91687 -2.05493,0.91687 -1.56281,0 -2.45886,-0.98671 -2.45886,-2.70792 v -4.54466 h 2.13607 v 4.28237 c 0,0.8673 0.33161,1.25395 1.07068,1.25395 0.81844,0 1.30704,-0.51806 1.30704,-1.38554 z m -7.86518,-3.10938 h 2.13607 v 10.2175 h -2.13607 z m -3.407836,0 h 2.136066 v 10.2175 h -2.136066 z m -5.83318,5.79878 c 0.16757,-0.82109 0.68086,-1.28817 1.426985,-1.28817 0.823735,0 1.27,0.42175 1.361725,1.28817 z m 2.841625,2.10573 c -0.116415,0.57009 -0.55739,0.85919 -1.308805,0.85919 -0.931335,0 -1.48696,-0.54927 -1.575155,-1.55063 h 4.93889 v -0.64823 c 0,-2.66365 -1.79211,-3.61298 -3.46957,-3.61298 -2.15018,0 -3.65125,1.51836 -3.65125,3.692 v 0.1046 c 0,2.16129 1.488722,3.6135 3.704165,3.6135 1.93146,0 3.171475,-0.87983 3.402545,-2.41406 l 0.02115,-0.14164 h -2.042585 z m -7.434793,-0.54451 h 1.961445 l -0.0088,0.13158 c -0.114652,1.77042 -1.418166,2.87038 -3.402541,2.87038 -2.219325,0 -3.652838,-1.41852 -3.652838,-3.6135 v -0.1046 c 0,-2.17364 1.507243,-3.692 3.665185,-3.692 1.97732,0 3.197931,1.01195 3.349625,2.77601 l 0.01235,0.13406 h -2.035528 l -0.01764,-0.10319 c -0.11818,-0.71649 -0.532694,-1.06451 -1.27,-1.06451 -0.948972,0 -1.515533,0.71914 -1.515533,1.92317 v 0.10513 c 0,0.89535 0.270228,1.9625 1.556103,1.9625 0.763764,0 1.266472,-0.45385 1.345847,-1.21408 z m -10.881078,-0.7687 c 0,-1.23931 0.56709,-1.94945 1.55575,-1.94945 0.988836,0 1.555926,0.71984 1.555926,1.97555 v 0.0921 c 0,1.24707 -0.56709,1.96268 -1.555926,1.96268 -0.98866,0 -1.55575,-0.72055 -1.55575,-1.97574 z m 1.55575,-3.63944 c -2.204509,0 -3.744207,1.51254 -3.744207,3.67859 v 0.10513 c 0,2.13501 1.534583,3.62638 3.73133,3.62638 2.204509,0 3.744031,-1.50724 3.744031,-3.66554 v -0.10512 c 0,-2.14278 -1.534231,-3.63944 -3.731154,-3.63944"
       style="fill:#ffffff;fill-opacity:1;fill-rule:nonzero;stroke:none;stroke-width:0.0176389"
       id="path20" />
  </g>
</svg>
